<?xml version="1.0" encoding="UTF-8"?>
<svg version="1.1" xmlns="http://www.w3.org/2000/svg" width="200" height="200">
<path d="M0 0 C2.4375 2.125 2.4375 2.125 4 5 C4.011788 10.23477669 1.91123458 12.6833879 -1.56352234 16.24116516 C-2.21440323 16.8819249 -2.86528412 17.52268463 -3.53588867 18.18286133 C-4.21890045 18.8746347 -4.90191223 19.56640808 -5.60562134 20.27914429 C-7.86399625 22.55950305 -10.14014564 24.82111098 -12.41796875 27.08203125 C-13.99473604 28.6621669 -15.57076049 30.24304413 -17.14607239 31.82463074 C-20.44941634 35.13534476 -23.76163136 38.43684994 -27.08032227 41.73217773 C-31.33332929 45.95669845 -35.5634959 50.20326809 -39.78727245 54.45699024 C-43.03732211 57.72510833 -46.29918806 60.98122252 -49.56475258 64.23383141 C-51.12932755 65.79507119 -52.69019739 67.36003314 -54.2472744 68.92875099 C-56.42535817 71.11953436 -58.61883158 73.29364671 -60.81713867 75.46411133 C-61.45789841 76.11499222 -62.09865814 76.76587311 -62.75883484 77.43647766 C-65.59235685 80.20387975 -67.43599749 81.8214907 -71.26533508 83.03349304 C-74 83 -74 83 -76.9375 81 C-79 78 -79 78 -79.03562927 74.76278687 C-77.65537894 69.74787665 -75.16331627 67.35295994 -71.49243164 63.79541016 C-70.47290657 62.77216141 -70.47290657 62.77216141 -69.43278503 61.72824097 C-67.18932308 59.48386294 -64.92526787 57.26157147 -62.66015625 55.0390625 C-61.09572413 53.48328668 -59.53254386 51.92625112 -57.9705658 50.36801147 C-53.85986368 46.27452648 -49.73102592 42.19980409 -45.59857178 38.1282959 C-42.22112893 34.7945027 -38.85678287 31.44766431 -35.49305058 28.10004616 C-31.49051498 24.11708583 -27.48250842 20.1396555 -23.47265625 16.1640625 C-22.32027308 15.02131804 -22.32027308 15.02131804 -21.14460945 13.85548782 C-18.97830316 11.71009521 -16.80836874 9.56845232 -14.63696289 7.42822266 C-13.66827774 6.468284 -13.66827774 6.468284 -12.68002319 5.48895264 C-8.328482 1.21146585 -6.24535727 -0.74944287 0 0 Z " fill="#0132CF" transform="translate(116,51)"/>
<path d="M0 0 C1.9375 1.0625 1.9375 1.0625 3 3 C3.49951782 6.33858683 3.7280295 8.85228882 1.86556816 11.78838921 C0.15703977 13.7555625 -1.63599846 15.58160576 -3.49829102 17.40405273 C-4.18930405 18.107332 -4.88031708 18.81061127 -5.5922699 19.53520203 C-7.87886129 21.85257573 -10.19008206 24.14343406 -12.50390625 26.43359375 C-14.10242104 28.03682417 -15.69989552 29.64109246 -17.29637146 31.24635315 C-20.64537816 34.60567851 -24.00671545 37.95202057 -27.37719727 41.28979492 C-31.6965638 45.56927942 -35.98374259 49.87942233 -40.26217747 54.19978237 C-43.55496529 57.51786514 -46.86424477 60.81909368 -50.17875481 64.11546516 C-51.7663261 65.6983669 -53.34871389 67.28648507 -54.92578316 68.87985039 C-57.13267406 71.10452066 -59.36076647 73.30551307 -61.59594727 75.50170898 C-62.24403351 76.16396484 -62.89211975 76.8262207 -63.55984497 77.50854492 C-66.77030643 80.61603878 -68.26198528 81.89550587 -72.8065033 82.53895569 C-76 82 -76 82 -78.5 79.875 C-80.4281554 76.17936881 -80.21711424 74.97017923 -79 71 C-77.08483217 68.37778547 -74.81384241 66.17155861 -72.49243164 63.90893555 C-71.81274826 63.22691574 -71.13306488 62.54489594 -70.43278503 61.84220886 C-68.18704214 59.5948533 -65.92400224 57.36582532 -63.66015625 55.13671875 C-62.09594192 53.57929379 -60.53275859 52.02083269 -58.9705658 50.46138 C-55.69687278 47.19836139 -52.4153407 43.94352405 -49.12719727 40.69506836 C-44.9054852 36.52430747 -40.69681124 32.3407049 -36.49305058 28.15185833 C-32.49014774 24.16372246 -28.48203234 20.18084561 -24.47265625 16.19921875 C-23.70440081 15.43587408 -22.93614536 14.67252941 -22.14460945 13.88605309 C-19.97820257 11.73587212 -17.80826028 9.58933278 -15.63696289 7.4440918 C-14.99117279 6.80256165 -14.34538269 6.16103149 -13.68002319 5.50006104 C-8.85711452 0.74742105 -6.8614988 -0.48150869 0 0 Z " fill="#0131CF" transform="translate(160,67)"/>
<path d="M0 0 C2.23272509 2.08387675 2.91073814 3.32661819 3.31149292 6.34986877 C2.89639441 9.88145956 1.58647923 11.10131367 -0.85888672 13.65209961 C-1.68467224 14.52405975 -2.51045776 15.3960199 -3.36126709 16.29440308 C-4.23204895 17.18725006 -5.10283081 18.08009705 -6 19 C-6.81325745 19.84990509 -7.62651489 20.69981018 -8.4644165 21.57546997 C-13.94777675 27.27435903 -19.52345482 32.88401417 -25.09326172 38.49829102 C-27.12626903 40.54925399 -29.15036667 42.60845468 -31.16748047 44.67504883 C-33.62846019 47.19625358 -36.10388358 49.70238281 -38.5902977 52.19849968 C-39.97992319 53.6007633 -41.3547793 55.01761412 -42.72927856 56.43470764 C-49.76205963 63.44456883 -49.76205963 63.44456883 -53.93701172 64.21069336 C-57 64 -57 64 -60 62 C-62 59 -62 59 -61.92745972 55.65951538 C-60.8212406 51.29466181 -59.34016687 49.60187067 -56.16064453 46.44775391 C-55.65813171 45.94115234 -55.1556189 45.43455078 -54.63787842 44.91259766 C-52.98364468 43.2523782 -51.30901741 41.61457207 -49.6328125 39.9765625 C-48.4744105 38.82428021 -47.31719027 37.67080877 -46.16110229 36.51620483 C-43.74058277 34.10487179 -41.31060168 31.70367063 -38.87255859 29.31005859 C-35.74602484 26.24021518 -32.63722535 23.15316326 -29.53445625 20.05932045 C-27.14713489 17.68030589 -24.75420433 15.30700687 -22.35915756 12.93577194 C-21.21076989 11.79878311 -20.06331677 10.66084957 -18.9168129 9.52196121 C-17.31573098 7.93460949 -15.70809111 6.35423277 -14.09814453 4.77587891 C-13.18404816 3.87543854 -12.26995178 2.97499817 -11.32815552 2.04727173 C-7.4877713 -1.32978362 -4.80113204 -1.30030659 0 0 Z " fill="#0130C7" transform="translate(107,32)"/>
<path d="M0 0 C2.60494672 1.64979959 2.92433102 2.6746234 3.625 5.6875 C1.45031337 17.21333913 -15.50262355 28.84499094 -23.796875 37.2019043 C-25.94057374 39.36351627 -28.07539727 41.53336086 -30.203125 43.71069336 C-32.79147602 46.35926532 -35.39428063 48.99278199 -38.00805664 51.61625862 C-38.99554255 52.61227732 -39.97790518 53.61340403 -40.95483398 54.61977959 C-42.32020432 56.02412498 -43.7066134 57.40792146 -45.09375 58.79077148 C-45.87427734 59.58160629 -46.65480469 60.3724411 -47.45898438 61.1872406 C-50.68743387 63.49041501 -53.063855 63.8742419 -57 64 C-60 61.9375 -60 61.9375 -62 59 C-61.87398861 53.56608398 -59.82626521 51.21007388 -56.05297852 47.46948242 C-55.53910583 46.95327332 -55.02523315 46.43706421 -54.49578857 45.9052124 C-52.80189376 44.20970855 -51.09089861 42.53268093 -49.37890625 40.85546875 C-48.19583552 39.67918982 -47.01379691 38.50187197 -45.83274841 37.32356262 C-43.35936927 34.86084777 -40.87821582 32.40636167 -38.39038086 29.95825195 C-35.19773274 26.8165818 -32.01817818 23.66207857 -28.8434763 20.50228405 C-25.81750833 17.49108732 -22.78634259 14.48514976 -19.75390625 11.48046875 C-19.17388918 10.90536245 -18.59387211 10.33025616 -17.99627876 9.7377224 C-16.35911734 8.11680203 -14.71844503 6.49953238 -13.07641602 4.88354492 C-12.14233414 3.96232346 -11.20825226 3.04110199 -10.24586487 2.09196472 C-6.56214295 -1.33932645 -4.84043935 -1.18541372 0 0 Z " fill="#0132CE" transform="translate(152,105)"/>
<path d="M0 0 C1.9375 1.625 1.9375 1.625 3 4 C3.12375009 9.15842491 1.88197095 11.53823775 -1.5703125 15.3671875 C-3.07279289 16.88553916 -4.59166244 18.38781641 -6.125 19.875 C-6.87265625 20.64585938 -7.6203125 21.41671875 -8.390625 22.2109375 C-14.60921802 28.36452781 -14.60921802 28.36452781 -18.8671875 29.13671875 C-22 29 -22 29 -25 26.9375 C-27 24 -27 24 -26.87280273 21.09692383 C-25.86638912 17.52591495 -24.67573546 16.08120433 -22.03515625 13.51171875 C-20.83536133 12.32932617 -20.83536133 12.32932617 -19.61132812 11.12304688 C-18.77021484 10.31931641 -17.92910156 9.51558594 -17.0625 8.6875 C-15.80663086 7.45290039 -15.80663086 7.45290039 -14.52539062 6.19335938 C-6.43058764 -1.70607427 -6.43058764 -1.70607427 0 0 Z " fill="#0131CB" transform="translate(112,86)"/>
<path d="M0 0 C2.42194927 1.53390121 2.88729401 2.69408374 3.875 5.375 C4.08287423 9.7403588 1.99332424 11.82363624 -0.73828125 15.05859375 C-3.91854718 18.52292226 -6.20562188 20.71725525 -10.6875 22.3125 C-14 22 -14 22 -17 19.9375 C-19 17 -19 17 -18.9453125 14.18359375 C-17.77523617 10.24304742 -15.74193063 7.93093211 -12.875 5.125 C-12.41351563 4.62742188 -11.95203125 4.12984375 -11.4765625 3.6171875 C-7.75860479 -0.10077021 -5.13997918 -0.62396382 0 0 Z " fill="#0131C9" transform="translate(68,129)"/>
<path d="M0 0 C2 2 2 2 2.8125 5.4375 C2.70516043 10.73617131 -0.92148154 13.98446695 -4.5065918 17.4609375 C-7.36325576 20.00060096 -9.62274216 21.75665775 -13.5 21.9375 C-17 21 -17 21 -19.0625 19.4375 C-20.41667469 15.9166458 -19.8593178 13.65016526 -19 10 C-16.78515625 7.1640625 -16.78515625 7.1640625 -14.0625 4.625 C-13.16660156 3.77164063 -12.27070312 2.91828125 -11.34765625 2.0390625 C-7.28763739 -1.48727668 -5.22801563 -1.02693164 0 0 Z " fill="#0131CA" transform="translate(58,53)"/>
<path d="M0 0 C2.375 1.625 2.375 1.625 4 4 C4.48678708 6.95429401 4.62498734 9.02697818 2.96533203 11.61083984 C1.51190721 13.29681263 -0.0173348 14.83574608 -1.625 16.375 C-2.14707031 16.92027344 -2.66914063 17.46554688 -3.20703125 18.02734375 C-5.96269452 20.74218238 -7.31627506 21.91206903 -11.25 22.41796875 C-14.49332747 21.92501983 -15.87898487 21.52890265 -18 19 C-18.6875 15.8125 -18.6875 15.8125 -18 12 C-15.98696845 8.98607568 -13.60291652 6.51034418 -11 4 C-10.154375 3.175 -9.30875 2.35 -8.4375 1.5 C-5.32050269 -0.41815219 -3.59795281 -0.6124175 0 0 Z " fill="#0132D1" transform="translate(158,126)"/>
<path d="M0 0 C1.9375 1.625 1.9375 1.625 3 4 C2.75607158 9.74586947 1.40947676 12.39437983 -2.6875 16.375 C-3.53699219 17.22835937 -4.38648438 18.08171875 -5.26171875 18.9609375 C-8.32694063 21.2434565 -10.20666754 21.84389578 -14 22 C-16.875 20.5 -16.875 20.5 -19 18 C-19.46875 14.7109375 -19.46875 14.7109375 -19 11 C-17.23546477 8.69253086 -15.74478644 7.02220887 -13.625 5.125 C-12.86316406 4.39796875 -12.86316406 4.39796875 -12.0859375 3.65625 C-7.71858832 -0.45825265 -5.93258246 -1.57395045 0 0 Z " fill="#0131CA" transform="translate(148,50)"/>
<path d="M0 0 C3.4375 0.5 3.4375 0.5 5.3125 1.6875 C6.79155406 4.07042043 7.30341307 5.68417448 7.4375 8.5 C6.4375 11.25 6.4375 11.25 4.4375 13.5 C0.77984182 14.56404602 -1.4167329 15.01258002 -4.9375 13.4375 C-7.1970092 10.7434698 -7.5625 9.00732933 -7.5625 5.5 C-5.49563395 1.53850674 -4.46566401 0.62675986 0 0 Z " fill="#047CCC" transform="translate(78.5625,114.5)"/>
<path d="M0 0 C1.9375 1.0625 1.9375 1.0625 3 3 C3.49891602 6.92005446 3.55253414 9.11594538 1.4375 12.5 C-1 14 -1 14 -4.5625 14 C-8 13 -8 13 -10 11.375 C-11.45331917 7.92336696 -10.92604949 5.57190516 -10 2 C-6.30513897 -0.46324069 -4.36706908 -0.38991688 0 0 Z " fill="#047DCC" transform="translate(42,96)"/>
<path d="M0 0 C2.875 1 2.875 1 4.8125 2.625 C6.38758002 6.1457671 5.93904602 8.34234182 4.875 12 C2.6875 14.0625 2.6875 14.0625 -0.125 15 C-3.65664296 14.23827309 -5.56371412 13.56128588 -8.125 11 C-8.5625 7.625 -8.5625 7.625 -8.125 4 C-5.45946825 0.86408029 -4.13747529 0 0 0 Z " fill="#047CCB" transform="translate(123.125,71)"/>
<path d="M0 0 C2 2 2 2 2.3125 5.9375 C2.23081662 8.43791894 2.12109418 9.77205801 0.9375 12 C-2.21863437 13.62897258 -4.52151049 13.48820905 -8 13 C-10.5 10.875 -10.5 10.875 -12 8 C-12 4.49267067 -11.6345092 2.7565302 -9.375 0.0625 C-5.95249533 -1.46862051 -3.58323398 -0.8626304 0 0 Z " fill="#047DCD" transform="translate(72,39)"/>
<path d="M0 0 C3.4375 1 3.4375 1 5.4375 2.6875 C6.81444267 5.87167993 6.417724 7.70924801 5.4375 11 C4.3125 12.875 4.3125 12.875 2.4375 14 C-0.9718712 14.36528977 -3.44273824 14.6140629 -6.5 12.9375 C-8.20152633 9.8347167 -7.98769574 7.46230815 -7.5625 4 C-5.30132583 0.38212133 -4.292718 0 0 0 Z " fill="#0484D6" transform="translate(74.5625,149)"/>
<path d="M0 0 C3 0.5625 3 0.5625 5.375 2.75 C7.14232156 5.80882577 7.70698088 7.11596821 7 10.5625 C5.375 12.875 5.375 12.875 3 14.5625 C-0.6717087 15.17445145 -2.28813568 15.04956506 -5.375 12.9375 C-7.48706506 9.85063568 -7.61195145 8.2342087 -7 4.5625 C-4.88658096 1.47365679 -3.68753254 0.69141235 0 0 Z " fill="#0484D7" transform="translate(133,147.4375)"/>
<path d="M0 0 C1.9375 1.625 1.9375 1.625 3 4 C2.67272727 10.32727273 2.67272727 10.32727273 0 13 C-7.10659898 13.67681895 -7.10659898 13.67681895 -10.0625 11.4375 C-11.41963883 7.90893904 -10.98515877 5.61224884 -10 2 C-6.95062482 -1.61407429 -4.34375767 -1.38630564 0 0 Z " fill="#047ECF" transform="translate(166,91)"/>
<path d="M0 0 C2.36604164 2.66179684 3.04466185 4.06210117 2.875 7.625 C1.90125807 10.2680138 1.36002096 11.45377937 -1 13 C-4.25996064 13.41616519 -6.34303035 13.2766188 -9.375 12 C-11.5721401 9.29582757 -11.57386042 7.29374867 -11.37890625 3.87890625 C-11 2 -11 2 -9.4375 -0.0625 C-5.874103 -1.43303731 -3.6365931 -1.05791799 0 0 Z " fill="#047FCF" transform="translate(131,38)"/>
<path d="M0 0 C0 0.33 0 0.66 0 1 C-0.88042969 1.23074219 -1.76085937 1.46148437 -2.66796875 1.69921875 C-6.46595015 3.18190082 -8.45870349 4.92405952 -11.3125 7.8125 C-12.17488281 8.66457031 -13.03726563 9.51664063 -13.92578125 10.39453125 C-16.05878729 13.07384393 -16.67999821 14.63696232 -17 18 C-17.33 18 -17.66 18 -18 18 C-18.56646812 14.76303933 -18.48452664 12.71447149 -16.6171875 9.9609375 C-7.40346131 -0.68869407 -7.40346131 -0.68869407 0 0 Z " fill="#01279D" transform="translate(158,126)"/>
<path d="M0 0 C-0.598125 0.268125 -1.19625 0.53625 -1.8125 0.8125 C-4.09795418 2.05317513 -5.44064279 2.92085706 -7 5 C-7.7269226 8.10839021 -7.7269226 8.10839021 -8 11 C-8.33 11 -8.66 11 -9 11 C-9.48461538 4.7 -9.48461538 4.7 -7.3125 1.5625 C-4.61589191 -0.25953249 -3.18873549 -0.35430394 0 0 Z " fill="#025599" transform="translate(76,149)"/>
<path d="M0 0 C0 0.33 0 0.66 0 1 C-0.94875 1.28875 -1.8975 1.5775 -2.875 1.875 C-6.05211578 2.76825109 -6.05211578 2.76825109 -8 5 C-8.64767793 7.57061311 -8.64767793 7.57061311 -9 10 C-9.33 10 -9.66 10 -10 10 C-10.32152515 6.46322336 -10.4131192 4.6037896 -8.375 1.625 C-5.3962104 -0.4131192 -3.53677664 -0.32152515 0 0 Z " fill="#025493" transform="translate(136,148)"/>
</svg>
